<?xml version="1.0" encoding="UTF-8" standalone="no"?>
<!DOCTYPE svg PUBLIC "-//W3C//DTD SVG 1.1//EN" "http://www.w3.org/Graphics/SVG/1.1/DTD/svg11.dtd">
<!-- Generated by Microsoft Visio, SVG Export yellow-budgy.svg Page-1 -->
<svg xmlns="http://www.w3.org/2000/svg" xmlns:xlink="http://www.w3.org/1999/xlink" xmlns:ev="http://www.w3.org/2001/xml-events"
		xmlns:v="http://schemas.microsoft.com/visio/2003/SVGExtensions/" width="9.96875in" height="6.34375in"
		viewBox="0 0 717.75 456.75" xml:space="preserve" color-interpolation-filters="sRGB" class="st7">
	<v:documentProperties v:langID="1033" v:viewMarkup="false">
		<v:userDefs>
			<v:ud v:nameU="msvSubprocessMaster" v:prompt="" v:val="VT4(Rectangle)"/>
			<v:ud v:nameU="msvNoAutoConnect" v:val="VT0(1):26"/>
		</v:userDefs>
	</v:documentProperties>

	<style type="text/css">
	<![CDATA[
		.st1 {visibility:visible}
		.st2 {fill:#5b9bd5;fill-opacity:0.22;filter:url(#filter_2);stroke:#5b9bd5;stroke-opacity:0.22}
		.st3 {fill:#000000;stroke:#ffffff;stroke-width:0.25}
		.st4 {fill:#ffc000;stroke:#c7c8c8;stroke-width:0.25}
		.st5 {fill:#feffff;stroke:#c7c8c8;stroke-width:0.25}
		.st6 {fill:#feffff;stroke:#feffff;stroke-width:0.25}
		.st7 {fill:none;fill-rule:evenodd;font-size:12px;overflow:visible;stroke-linecap:square;stroke-miterlimit:3}
	]]>
	</style>

	<defs id="Filters">
		<filter id="filter_2">
			<feGaussianBlur stdDeviation="2"/>
		</filter>
	</defs>
	<g v:mID="0" v:index="1" v:groupContext="foregroundPage">
		<v:userDefs>
			<v:ud v:nameU="msvThemeOrder" v:val="VT0(0):26"/>
		</v:userDefs>
		<title>Page-1</title>
		<v:pageProperties v:drawingScale="1" v:pageScale="1" v:drawingUnits="0" v:shadowOffsetX="9" v:shadowOffsetY="-9"/>
		<g id="shape8-1" v:mID="8" v:groupContext="shape" transform="translate(21.0294,-23.3478)">
			<title>Rectangle</title>
			<v:userDefs>
				<v:ud v:nameU="visVersion" v:val="VT0(15):26"/>
			</v:userDefs>
			<g id="shadow8-2" v:groupContext="shadow" v:shadowOffsetX="0.345598" v:shadowOffsetY="-1.97279" v:shadowType="1"
					transform="matrix(1,0,0,1,0.345598,1.97279)" class="st1">
				<rect x="0" y="42.75" width="675" height="414" class="st2"/>
			</g>
			<rect x="0" y="42.75" width="675" height="414" class="st3"/>
		</g>
		<g id="shape1-6" v:mID="1" v:groupContext="shape" transform="translate(642.029,566.152) rotate(180)">
			<title>Triangle</title>
			<v:userDefs>
				<v:ud v:nameU="visVersion" v:val="VT0(15):26"/>
			</v:userDefs>
			<g id="shadow1-7" v:groupContext="shadow" v:shadowOffsetX="0.345598" v:shadowOffsetY="-1.97279" v:shadowType="1"
					transform="matrix(1,0,0,1,-0.345598,-1.97279)" class="st1">
				<path d="M567 456.75 L283.5 312.75 L0 456.75 L567 456.75 Z" class="st2"/>
			</g>
			<path d="M567 456.75 L283.5 312.75 L0 456.75 L567 456.75 Z" class="st4"/>
		</g>
		<g id="group9-11" transform="translate(57.0294,-59.3478)" v:mID="9" v:groupContext="group">
			<title>Sheet.9</title>
			<g id="shape2-12" v:mID="2" v:groupContext="shape">
				<title>Right Triangle</title>
				<v:userDefs>
					<v:ud v:nameU="visVersion" v:val="VT0(15):26"/>
				</v:userDefs>
				<g id="shadow2-13" v:groupContext="shadow" v:shadowOffsetX="0.345598" v:shadowOffsetY="-1.97279" v:shadowType="1"
						transform="matrix(1,0,0,1,0.345598,1.97279)" class="st1">
					<path d="M0 456.75 L522 456.75 L0 186.75 L0 456.75 Z" class="st2"/>
				</g>
				<path d="M0 456.75 L522 456.75 L0 186.75 L0 456.75 Z" class="st5"/>
			</g>
			<g id="shape3-17" v:mID="3" v:groupContext="shape" transform="translate(612,0) scale(-1,1)">
				<title>Right Triangle.3</title>
				<v:userDefs>
					<v:ud v:nameU="visVersion" v:val="VT0(15):26"/>
				</v:userDefs>
				<g id="shadow3-18" v:groupContext="shadow" v:shadowOffsetX="0.345598" v:shadowOffsetY="-1.97279" v:shadowType="1"
						transform="matrix(1,0,0,1,-0.345598,1.97279)" class="st1">
					<path d="M0 456.75 L522 456.75 L0 186.75 L0 456.75 Z" class="st2"/>
				</g>
				<path d="M0 456.75 L522 456.75 L0 186.75 L0 456.75 Z" class="st6"/>
			</g>
			<g id="shape6-22" v:mID="6" v:groupContext="shape" transform="translate(90,0)">
				<title>Triangle.6</title>
				<v:userDefs>
					<v:ud v:nameU="visVersion" v:val="VT0(15):26"/>
				</v:userDefs>
				<g id="shadow6-23" v:groupContext="shadow" v:shadowOffsetX="0.345598" v:shadowOffsetY="-1.97279" v:shadowType="1"
						transform="matrix(1,0,0,1,0.345598,1.97279)" class="st1">
					<path d="M432 456.75 L216 345.15 L0 456.75 L432 456.75 Z" class="st2"/>
				</g>
				<path d="M432 456.75 L216 345.15 L0 456.75 L432 456.75 Z" class="st6"/>
			</g>
		</g>
	</g>
</svg>
